HIERARCHY
ROOT Hips
{
	OFFSET 0.000000 0.000000 0.000000
	CHANNELS 6 Xposition Yposition Zposition Xrotation Yrotation Zrotation
	JOINT LeftUpLeg_virtual
	{
		OFFSET 0.000000 0.000000 0.000000
		CHANNELS 3 Xrotation Yrotation Zrotation
		JOINT LeftUpLeg
		{
			OFFSET 15.427100 -6.655098 0.678600
			CHANNELS 3 Xrotation Yrotation Zrotation
			JOINT LeftLeg
			{
				OFFSET 4.081073 -39.591068 13.024000
				CHANNELS 3 Xrotation Yrotation Zrotation
				JOINT LeftFoot
				{
					OFFSET -4.081074 -37.707932 -15.979700
					CHANNELS 3 Xrotation Yrotation Zrotation
					JOINT LeftToeBase
					{
						OFFSET 5.346399 -15.068900 20.645000
						CHANNELS 3 Xrotation Yrotation Zrotation
						JOINT LeftToe_End
						{
							OFFSET 2.754700 0.931300 11.300900
							CHANNELS 3 Xrotation Yrotation Zrotation
							End Site
							{
								OFFSET 0 0 0
							}
						}
					}
				}
			}
		}
	}
	JOINT RightUpLeg_virtual
	{
		OFFSET 0.000000 0.000000 0.000000
		CHANNELS 3 Xrotation Yrotation Zrotation
		JOINT RightUpLeg
		{
			OFFSET -15.569500 -6.655098 0.678600
			CHANNELS 3 Xrotation Yrotation Zrotation
			JOINT RightLeg
			{
				OFFSET -4.081825 -39.591045 13.023800
				CHANNELS 3 Xrotation Yrotation Zrotation
				JOINT RightFoot
				{
					OFFSET 4.081824 -37.707954 -15.979600
					CHANNELS 3 Xrotation Yrotation Zrotation
					JOINT RightToeBase
					{
						OFFSET -5.346400 -15.068900 20.645000
						CHANNELS 3 Xrotation Yrotation Zrotation
						JOINT RightToe_End
						{
							OFFSET -2.754700 0.931300 11.300900
							CHANNELS 3 Xrotation Yrotation Zrotation
							End Site
							{
								OFFSET 0 0 0
							}
						}
					}
				}
			}
		}
	}
	JOINT Spine_virtual
	{
		OFFSET 0.000000 0.000000 0.000000
		CHANNELS 3 Xrotation Yrotation Zrotation
		JOINT Spine
		{
			OFFSET -0.279200 12.230698 -2.892100
			CHANNELS 3 Xrotation Yrotation Zrotation
			JOINT Spine1
			{
				OFFSET -0.232667 10.192268 -1.242267
				CHANNELS 3 Xrotation Yrotation Zrotation
				JOINT Spine1_split
				{
					OFFSET -0.232667 10.192268 -1.242267
					CHANNELS 3 Xrotation Yrotation Zrotation
					JOINT Spine2
					{
						OFFSET -0.232667 10.192268 -1.242267
						CHANNELS 3 Xrotation Yrotation Zrotation
						JOINT Neck_virtual
						{
							OFFSET 0.000000 0.000000 0.000000
							CHANNELS 3 Xrotation Yrotation Zrotation
							JOINT Neck
							{
								OFFSET -0.418800 17.814194 8.416900
								CHANNELS 3 Xrotation Yrotation Zrotation
								JOINT Head
								{
									OFFSET 0.000000 7.031097 3.806800
									CHANNELS 3 Xrotation Yrotation Zrotation
									JOINT HeadTop_End
									{
										OFFSET 0.000000 24.646606 12.978600
										CHANNELS 3 Xrotation Yrotation Zrotation
										End Site
										{
											OFFSET 0 0 0
										}
									}
								}
							}
						}
						JOINT LeftShoulder_virtual
						{
							OFFSET 0.000000 0.000000 0.000000
							CHANNELS 3 Xrotation Yrotation Zrotation
							JOINT LeftShoulder
							{
								OFFSET 8.476499 7.247704 -3.868750
								CHANNELS 3 Xrotation Yrotation Zrotation
								JOINT LeftShoulder_split
								{
									OFFSET 8.476499 7.247704 -3.868750
									CHANNELS 3 Xrotation Yrotation Zrotation
									JOINT LeftArm
									{
										OFFSET 9.308998 -2.777710 0.208600
										CHANNELS 3 Xrotation Yrotation Zrotation
										JOINT LeftForeArm
										{
											OFFSET 29.972298 0.000000 0.000000
											CHANNELS 3 Xrotation Yrotation Zrotation
											JOINT LeftHand
											{
												OFFSET 26.026505 0.000000 0.000000
												CHANNELS 3 Xrotation Yrotation Zrotation
												End Site
												{
													OFFSET 0 0 0
												}
											}
										}
									}
								}
							}
						}
						JOINT RightShoulder_virtual
						{
							OFFSET 0.000000 0.000000 0.000000
							CHANNELS 3 Xrotation Yrotation Zrotation
							JOINT RightShoulder
							{
								OFFSET -7.570500 7.247704 -3.868750
								CHANNELS 3 Xrotation Yrotation Zrotation
								JOINT RightShoulder_split
								{
									OFFSET -7.570500 7.247704 -3.868750
									CHANNELS 3 Xrotation Yrotation Zrotation
									JOINT RightArm
									{
										OFFSET -9.308998 -2.777710 0.208500
										CHANNELS 3 Xrotation Yrotation Zrotation
										JOINT RightForeArm
										{
											OFFSET -29.972300 0.000000 0.000000
											CHANNELS 3 Xrotation Yrotation Zrotation
											JOINT RightHand
											{
												OFFSET -26.026505 0.000000 0.000000
												CHANNELS 3 Xrotation Yrotation Zrotation
												End Site
												{
													OFFSET 0 0 0
												}
											}
										}
									}
								}
							}
						}
					}
				}
			}
		}
	}
}
MOTION
Frames: 11
Frame Time: 0.03333333
0.572788 90.841988 1.799961 0.000000 0.000000 0.000000 1.796999 0.141145 0.387507 -4.425806 -2.318804 13.254243 14.441557 0.157956 -4.118327 -10.664482 12.783378 -7.588002 0.946454 0.054255 -1.796484 0.000000 0.000000 0.000000 2.942378 -1.288396 0.382548 -2.561498 -3.687402 -14.948390 14.226002 4.028605 4.958731 -9.027534 -13.030233 8.900028 -1.450873 0.572786 1.117200 0.000000 0.000000 0.000000 3.073656 -1.280964 -0.048858 3.049469 0.402060 1.576189 3.139129 0.091390 0.260413 0.838692 0.358883 0.122344 0.000000 0.000000 0.000000 2.790321 0.146968 0.020278 -2.804462 -0.059369 0.319813 -0.789170 -1.945815 2.148566 0.000000 0.000000 0.000000 2.635298 0.183539 0.219165 1.302164 9.509726 -13.267336 -0.250580 -2.169469 -0.864379 11.406365 -5.765618 -52.674200 -0.612410 -32.200005 0.869765 0.000000 0.000000 0.000000 2.585145 0.060669 0.250213 1.666217 -9.557933 11.793399 0.795858 1.999231 -1.847817 1.636117 18.214101 63.282304 2.125441 25.061091 0.350713 0.000000 0.000000 0.000000 
1.214489 90.718361 1.196571 0.000000 0.000000 0.000000 1.768246 -0.436921 0.537326 -4.583194 -2.391280 12.801307 14.467693 0.186117 -4.194463 -11.145102 12.298930 -7.770730 0.752668 0.049483 -1.753999 0.000000 0.000000 0.000000 2.839214 -1.435656 0.515701 -2.716827 -4.110784 -15.472784 13.992736 3.790014 4.974429 -9.024633 -12.981703 9.204258 -1.948480 0.530785 1.052808 0.000000 0.000000 0.000000 2.992124 -1.544713 0.001807 3.121045 0.366601 1.620461 3.156350 0.056913 0.260149 0.989847 0.130048 0.059179 0.000000 0.000000 0.000000 2.826681 0.136118 0.012124 -2.824854 -0.031432 0.241853 -0.731137 -1.822415 2.020090 0.000000 0.000000 0.000000 2.698073 0.147538 0.210792 1.283264 9.292069 -13.212932 -0.306593 -1.950705 -0.828646 11.252031 -6.190229 -52.875578 -0.593000 -32.338545 0.887238 0.000000 0.000000 0.000000 2.640680 0.041865 0.266230 1.692937 -9.335130 11.846230 0.888013 2.047064 -1.942051 1.569019 18.200508 63.172413 2.137343 24.885227 0.395549 0.000000 0.000000 0.000000 
2.263980 90.514069 0.650074 0.000000 0.000000 0.000000 1.685963 -1.104405 0.666454 -5.146379 -2.491948 12.224644 15.344380 -0.191875 -4.429980 -11.683719 11.008034 -8.160124 0.441998 0.016763 -1.526933 0.000000 0.000000 0.000000 2.627302 -1.650998 0.657767 -2.604117 -4.279835 -16.333622 13.844256 3.557596 4.901562 -9.205368 -12.839158 9.801310 -2.078594 0.560203 0.899698 0.000000 0.000000 0.000000 2.959206 -1.858081 0.103694 3.238950 0.219176 1.592210 3.106536 -0.003183 0.245200 1.063693 0.056405 -0.019411 0.000000 0.000000 0.000000 2.798248 0.088479 0.002249 -2.788541 0.044084 0.110818 -0.631293 -1.660495 1.915295 0.000000 0.000000 0.000000 2.698987 0.088901 0.200708 1.252114 8.837142 -13.154955 -0.257729 -1.677646 -0.708068 11.074791 -6.958904 -53.171052 -0.492433 -32.333084 0.887181 0.000000 0.000000 0.000000 2.638349 -0.008539 0.287195 1.715070 -8.796864 12.099067 0.888301 2.016796 -2.106120 1.407826 18.207987 62.796377 2.090345 24.332184 0.428762 0.000000 0.000000 0.000000 
3.583583 90.231522 0.357800 0.000000 0.000000 0.000000 1.635177 -1.709064 0.749067 -6.058650 -2.582743 11.658900 16.819756 -0.702012 -4.753620 -12.307002 9.209527 -8.405621 0.282868 -0.040151 -1.186105 0.000000 0.000000 0.000000 2.452891 -1.874144 0.742329 -2.312819 -4.200288 -17.403202 13.706725 3.366124 4.816365 -9.508158 -12.595817 10.594839 -1.831770 0.666145 0.654032 0.000000 0.000000 0.000000 2.973030 -2.172490 0.207918 3.387703 -0.023588 1.505017 2.990506 -0.075157 0.216113 0.997785 0.108114 -0.039492 0.000000 0.000000 0.000000 2.717264 0.015340 -0.009193 -2.685396 0.150439 -0.039577 -0.515005 -1.504623 1.879794 0.000000 0.000000 0.000000 2.637187 0.022058 0.192008 1.212284 8.226760 -13.063121 -0.221328 -1.310260 -0.563401 10.879894 -7.930464 -53.554881 -0.338468 -32.182509 0.864123 0.000000 0.000000 0.000000 2.577558 -0.082624 0.298509 1.725087 -8.008098 12.475497 0.807911 1.955202 -2.269256 1.120760 18.213002 62.230304 1.997851 23.556776 0.451032 0.000000 0.000000 0.000000 
5.024947 89.904045 0.253498 0.000000 0.000000 0.000000 1.653501 -2.225217 0.759337 -7.175521 -2.613560 11.134018 18.511892 -1.057904 -5.065340 -13.088842 7.299381 -8.156898 0.306690 -0.094416 -0.800650 0.000000 0.000000 0.000000 2.418423 -2.221381 0.729750 -2.036925 -3.950055 -18.517958 13.618102 3.199527 4.791085 -9.784366 -12.332338 11.603849 -1.606013 0.818632 0.379612 0.000000 0.000000 0.000000 3.025329 -2.454105 0.269877 3.554576 -0.327105 1.393849 2.832675 -0.151116 0.179750 0.959895 0.175246 -0.050433 0.000000 0.000000 0.000000 2.587031 -0.071119 -0.019178 -2.533904 0.255310 -0.185875 -0.418862 -1.399809 1.949925 0.000000 0.000000 0.000000 2.526066 -0.044629 0.188667 1.164982 7.549677 -12.925995 -0.276918 -0.972755 -0.499917 10.652388 -8.992808 -54.022889 -0.192146 -31.975432 0.812092 0.000000 0.000000 0.000000 2.465927 -0.171463 0.287950 1.720080 -7.043031 12.896843 0.741743 1.889371 -2.400166 0.735391 18.192282 61.559361 1.874585 22.681448 0.460924 0.000000 0.000000 0.000000 
6.439021 89.606171 0.259304 0.000000 0.000000 0.000000 1.794305 -2.674078 0.685003 -8.232520 -2.534934 10.630641 20.028649 -1.098081 -5.254500 -14.063243 5.615020 -7.272037 0.403037 -0.123963 -0.423323 0.000000 0.000000 0.000000 2.479691 -2.554466 0.619243 -2.009287 -3.569012 -19.581422 13.758027 3.045559 4.822161 -9.881319 -12.130018 12.824418 -1.953766 0.967837 0.131575 0.000000 0.000000 0.000000 3.103985 -2.614495 0.251896 3.748538 -0.657495 1.291423 2.667233 -0.225107 0.145798 0.944605 0.303075 -0.052608 0.000000 0.000000 0.000000 2.422970 -0.163003 -0.026501 -2.360229 0.327924 -0.298767 -0.348772 -1.367167 2.152087 0.000000 0.000000 0.000000 2.381697 -0.103096 0.191132 1.113280 6.879806 -12.737512 -0.390054 -0.759324 -0.489647 10.368295 -10.025814 -54.563202 -0.079785 -31.799759 0.736766 0.000000 0.000000 0.000000 2.321599 -0.265572 0.252743 1.710078 -6.003975 13.315660 0.689251 1.808848 -2.491675 0.317801 18.150193 60.842253 1.752411 21.744768 0.457424 0.000000 0.000000 0.000000 
7.732716 89.364212 0.347401 0.000000 0.000000 0.000000 2.025708 -3.135898 0.547453 -9.100565 -2.390338 10.031895 21.189584 -0.879034 -5.263632 -15.072896 4.275181 -5.958874 0.457262 -0.128784 -0.097424 0.000000 0.000000 0.000000 2.659094 -2.842136 0.445683 -2.299851 -3.106776 -20.590696 14.338649 2.865288 4.923299 -9.773152 -11.983705 14.073793 -3.262327 1.070850 -0.010151 0.000000 0.000000 0.000000 3.171814 -2.671462 0.134598 3.997239 -0.975966 1.217848 2.517455 -0.293104 0.123035 0.953947 0.442011 0.008222 0.000000 0.000000 0.000000 2.236600 -0.251144 -0.025579 -2.194412 0.366152 -0.355936 -0.283437 -1.388815 2.474100 0.000000 0.000000 0.000000 2.230015 -0.151386 0.198431 1.065777 6.258536 -12.494300 -0.493572 -0.690707 -0.528066 10.049864 -10.923708 -55.179715 -0.020414 -31.691473 0.641410 0.000000 0.000000 0.000000 2.169959 -0.357504 0.199850 1.702035 -4.965344 13.718805 0.644316 1.707186 -2.549990 -0.073500 18.076826 60.118990 1.649497 20.793312 0.441701 0.000000 0.000000 0.000000 
8.879663 89.200073 0.438377 0.000000 0.000000 0.000000 2.234686 -3.567305 0.392063 -9.758722 -2.209051 9.297252 22.082854 -0.540526 -5.098677 -15.877386 3.316485 -4.556943 0.443078 -0.115882 0.118029 0.000000 0.000000 0.000000 2.825437 -3.105199 0.295506 -2.949900 -2.616274 -21.521316 15.569855 2.571484 5.060974 -9.586944 -11.899896 15.052065 -5.383673 1.091739 0.036804 0.000000 0.000000 0.000000 3.188050 -2.735715 -0.037788 4.317798 -1.260050 1.176388 2.394377 -0.359206 0.114456 0.982612 0.546268 0.094404 0.000000 0.000000 0.000000 2.035354 -0.331661 -0.018440 -2.056342 0.365240 -0.348237 -0.194789 -1.439092 2.873844 0.000000 0.000000 0.000000 2.086442 -0.193692 0.208807 1.025511 5.707853 -12.224543 -0.574552 -0.761708 -0.562220 9.717810 -11.674287 -55.865845 0.007227 -31.651103 0.546213 0.000000 0.000000 0.000000 2.025001 -0.438265 0.140440 1.698209 -3.997623 14.117991 0.659079 1.636699 -2.557028 -0.445109 17.974993 59.418998 1.579046 19.939950 0.409122 0.000000 0.000000 0.000000 
9.952341 89.091690 0.590565 0.000000 0.000000 0.000000 2.385136 -3.877628 0.252952 -10.189355 -1.993463 8.408351 22.772254 -0.195311 -4.817038 -16.439644 2.738340 -3.286226 0.517675 -0.111705 0.172221 0.000000 0.000000 0.000000 2.878658 -3.355636 0.198710 -4.029905 -2.058286 -22.478822 17.680433 2.110070 5.174507 -9.377357 -11.915265 15.410929 -7.805397 1.037807 0.246513 0.000000 0.000000 0.000000 3.196540 -2.867033 -0.203685 4.705126 -1.503225 1.144330 2.288259 -0.437468 0.115734 0.954382 0.603520 0.161385 0.000000 0.000000 0.000000 1.851727 -0.399813 -0.011601 -1.956449 0.342893 -0.272210 -0.062323 -1.460296 3.274818 0.000000 0.000000 0.000000 1.960116 -0.229041 0.222403 0.992453 5.230369 -11.945407 -0.617885 -0.911452 -0.588943 9.336446 -12.300062 -56.590453 0.033175 -31.663101 0.475493 0.000000 0.000000 0.000000 1.888797 -0.508789 0.086789 1.696669 -3.167243 14.530628 0.675141 1.604580 -2.528284 -0.765591 17.878029 58.745091 1.555966 19.248761 0.357622 0.000000 0.000000 0.000000 
10.995421 89.009171 0.887703 0.000000 0.000000 0.000000 2.482746 -4.065401 0.161969 -10.397308 -1.729504 7.400381 23.198828 0.076852 -4.538028 -16.838781 2.474614 -2.356544 0.624591 -0.117916 0.128222 0.000000 0.000000 0.000000 2.811373 -3.701256 0.148560 -5.561871 -1.436011 -23.574729 20.652631 1.580311 5.219206 -8.982149 -11.966135 15.285466 -10.246120 0.929855 0.532126 0.000000 0.000000 0.000000 3.184092 -3.135988 -0.337198 5.160808 -1.729878 1.098620 2.181741 -0.531647 0.121724 0.962698 0.551460 0.214870 0.000000 0.000000 0.000000 1.706191 -0.456379 -0.008279 -1.882583 0.314707 -0.140409 0.128120 -1.400123 3.605464 0.000000 0.000000 0.000000 1.851806 -0.260788 0.239257 0.963749 4.783260 -11.669316 -0.662796 -1.087031 -0.669710 8.833562 -12.836199 -57.314713 0.045383 -31.686784 0.440627 0.000000 0.000000 0.000000 1.765331 -0.573361 0.043151 1.684388 -2.478964 14.956347 0.647921 1.650009 -2.478165 -0.998478 17.799598 58.090971 1.573459 18.702596 0.300408 0.000000 0.000000 0.000000 
12.015921 88.930222 1.328503 0.000000 0.000000 0.000000 2.520899 -4.264931 0.143032 -10.316271 -1.348367 6.387035 23.327753 0.250933 -4.383894 -17.227822 2.489296 -1.776343 0.565962 -0.134614 0.106934 0.000000 0.000000 0.000000 2.650296 -4.081020 0.141302 -7.632465 -0.602422 -24.856691 24.517225 1.279140 5.059350 -8.165677 -11.939815 15.157141 -12.597072 0.789971 0.780757 0.000000 0.000000 0.000000 3.183233 -3.622101 -0.374809 5.651061 -1.963207 0.999756 2.063405 -0.638112 0.126576 0.996315 0.380220 0.284846 0.000000 0.000000 0.000000 1.601062 -0.506897 -0.015201 -1.808531 0.305527 0.015388 0.395314 -1.201712 3.810219 0.000000 0.000000 0.000000 1.749522 -0.296757 0.244726 0.939954 4.335485 -11.414721 -0.697649 -1.277937 -0.789500 8.156470 -13.285100 -57.984454 0.047181 -31.709607 0.431798 0.000000 0.000000 0.000000 1.653225 -0.634560 0.007235 1.666994 -1.942421 15.399888 0.519792 1.807695 -2.425018 -1.127026 17.751971 57.447594 1.632451 18.226102 0.248270 0.000000 0.000000 0.000000 
